<svg version="1.1" id="Livello_1" xmlns="http://www.w3.org/2000/svg" viewBox="0 0 162 48.5" width="162" height="48.5">
  <style type="text/css">
    .st0{fill:#231F20;}
    .st2{fill:#FFFFFF;}
    .st3{fill:#02CC66;}
  </style>
  
  <!-- Iso/Logo -->
  <polygon class="st3" points="23.49,0 0,33.23 0,47.45 33.65,0 "/>
  <polygon class="st0" points="36.89,7.57 30.88,16.03 22.28,16.03 0,47.45 8.6,47.45 10.16,47.45 18.71,47.45 47.03,7.57 "/>
  <polygon class="st0" points="7.99,7.57 0,18.87 0,33.23 18.13,7.57 "/>
  <polygon class="st2" points="1.39,19.31 8.71,8.96 15.44,8.96 1.39,28.77 "/>
  <polygon class="st2" points="2.69,46.06 23,17.42 29.75,17.42 9.44,46.06 "/>
  <polygon class="st2" points="11.29,46.06 37.6,8.96 44.34,8.96 17.99,46.06 "/>
  
  <!-- Texto / Tipografía -->
  <rect x="35.96" y="29.41" class="st0" width="3.01" height="18.01"/>
  <polygon class="st0" points="49.81,29.41 39.96,29.41 39.96,32.68 43.36,32.68 43.36,47.42 46.39,47.42 46.39,32.68 49.81,32.68 "/>
  <path class="st0" d="M53.41,29.41l-5.57,18.01h3.03L52,43.33h5.3l1.11,4.09h3.09l-5.28-18.01H53.41z M52.71,40.63l1.2-4.28 c0.27-0.92,0.5-1.85,0.69-2.77h0.1c0.19,0.9,0.4,1.74,0.67,2.75l1.18,4.3H52.71z"/>
  <polygon class="st0" points="65.2,29.41 62.19,29.41 62.19,47.42 70.98,47.42 70.98,44.14 65.2,44.14 "/>
  <polygon class="st0" points="79.3,37.01 74.85,37.01 74.85,32.68 80.42,32.68 80.42,29.41 71.84,29.41 71.84,47.42 74.85,47.42 74.85,40.13 79.3,40.13 "/>
  <path class="st0" d="M83.74,29.41l-5.57,18.01h3.03l1.13-4.09h5.3l1.11,4.09h3.09l-5.28-18.01H83.74z M83.05,40.63l1.2-4.28 c0.27-0.92,0.5-1.85,0.69-2.77h0.11c0.19,0.9,0.4,1.74,0.67,2.75l1.18,4.3H83.05z"/>
  <path class="st0" d="M102.19,34.9c0-2.96-1.41-5.49-5.44-5.49h-4.46v18.01h3v-7.08h0.95l3.89,7.08h3.57l-4.43-7.61 C100.89,39.23,102.19,37.49,102.19,34.9 M96.92,37.57H95.3v-5.12h1.6c1.43,0,2.21,0.98,2.21,2.61 C99.1,36.56,98.28,37.57,96.92,37.57"/>
  <path class="st0" d="M115.22,29.38l-1.64,9.56c-0.25,1.35-0.36,2.46-0.48,3.75h-0.08c-0.08-1.29-0.23-2.48-0.46-3.83l-1.72-9.48 h-3.24l-3.47,18.01h2.92l1.66-9.77c0.17-1.03,0.34-2.19,0.46-3.43h0.08c0.15,1.08,0.23,1.96,0.53,3.46l1.83,9.75h2.84l1.7-9.56 c0.21-1.19,0.42-2.51,0.57-3.65h0.08c0.13,0.95,0.19,1.66,0.53,3.41l1.79,9.8h2.98l-3.68-18.01H115.22z"/>
  <path class="st0" d="M128.21,29.41l-5.57,18.01h3.03l1.13-4.09h5.3l1.11,4.09h3.09l-5.28-18.01H128.21z M127.52,40.63l1.2-4.28 c0.27-0.92,0.5-1.85,0.69-2.77h0.1c0.19,0.9,0.4,1.74,0.67,2.75l1.18,4.3H127.52z"/>
  <path class="st0" d="M141.63,44.78c-2.29,0-3.83-2.93-3.83-6.39c0-3.75,1.58-6.34,3.79-6.34c1.69,0,2.82,1.48,3.15,3.12h2.82 c-0.44-3.01-2.47-6.34-5.95-6.34c-3.76,0-6.49,4.04-6.49,9.53c0,5.49,2.56,9.64,6.43,9.64c3.43,0,5.44-2.98,6.23-6.63h-2.91 C144.49,43.11,143.46,44.78,141.63,44.78"/>
  <path class="st0" d="M154.82,28.83c-3.98,0-6.85,4.46-6.85,9.59c0,4.44,2.11,9.59,6.83,9.59c3.9,0,6.81-4.33,6.81-9.59 C161.61,33.4,159.06,28.83,154.82,28.83 M154.78,44.62c-2.3,0-4.06-2.67-4.06-6.21s1.77-6.21,4.08-6.21c2.45,0,4.06,2.75,4.06,6.21 C158.85,41.95,157.1,44.62,154.78,44.62"/>
</svg>
